<svg xmlns="http://www.w3.org/2000/svg" width="74" height="35" fill="none"><path fill="#8938EC" d="m55.953 0 5.766 9.588h.204L67.714 0h5.408l-8.067 13.09 8.195 13.092h-5.497l-5.83-9.524h-.204l-5.83 9.524h-5.472L58.69 13.09 50.519 0h5.434ZM47.417 30.578v4h-20v-4h20ZM42.922 0h4.743v17.105c0 1.875-.444 3.524-1.33 4.948-.878 1.423-2.114 2.535-3.707 3.336-1.594.793-3.456 1.19-5.587 1.19-2.14 0-4.006-.397-5.6-1.19-1.593-.8-2.829-1.913-3.707-3.336-.878-1.424-1.317-3.073-1.317-4.948V0h4.743v16.709c0 1.09.239 2.062.716 2.915a5.206 5.206 0 0 0 2.046 2.007c.878.477 1.917.716 3.12.716 1.2 0 2.24-.239 3.118-.716a5.096 5.096 0 0 0 2.046-2.007c.477-.853.716-1.824.716-2.915V0ZM21.516 0v26.182h-4.22L4.96 8.348h-.217v17.834H0V0h4.244l12.324 17.847h.23V0h4.718Z"/></svg>
